# This file uses centimeters as units for non-parametric coordinates.

mtllib asetss  bass.mtl
g default
v -271.861572 -63.378220 255.200058
v -262.246124 -67.361069 255.200058
v -262.246124 -63.378220 264.815460
v -262.246124 -53.762775 268.798309
v -271.861572 -53.762775 264.815460
v -275.844391 -53.762775 255.200058
v 271.861572 -63.378220 255.200058
v 275.844391 -53.762775 255.200058
v 271.861572 -53.762775 264.815460
v 262.246124 -53.762775 268.798309
v 262.246124 -63.378220 264.815460
v 262.246124 -67.361069 255.200058
v -271.861572 19.320379 255.200058
v -275.844391 9.704945 255.200058
v -271.861572 9.704945 264.815460
v -262.246124 9.704945 268.798309
v -262.246124 19.320379 264.815460
v -262.246124 23.303225 255.200058
v 271.861572 19.320379 255.200058
v 262.246124 23.303225 255.200058
v 262.246124 19.320379 264.815460
v 262.246124 9.704945 268.798309
v 271.861572 9.704945 264.815460
v 275.844391 9.704945 255.200058
v -271.861572 9.704945 -278.907654
v -275.844391 9.704945 -269.292175
v -271.861572 19.320379 -269.292175
v -262.246124 23.303225 -269.292175
v -262.246124 19.320379 -278.907654
v -262.246124 9.704945 -282.890472
v 271.861572 9.704945 -278.907654
v 262.246124 9.704945 -282.890472
v 262.246124 19.320379 -278.907654
v 262.246124 23.303225 -269.292175
v 271.861572 19.320379 -269.292175
v 275.844391 9.704945 -269.292175
v -271.861572 -63.378220 -269.292175
v -275.844391 -53.762775 -269.292175
v -271.861572 -53.762775 -278.907654
v -262.246124 -53.762775 -282.890472
v -262.246124 -63.378220 -278.907654
v -262.246124 -67.361069 -269.292175
v 271.861572 -63.378220 -269.292175
v 262.246124 -67.361069 -269.292175
v 262.246124 -63.378220 -278.907654
v 262.246124 -53.762775 -282.890472
v 271.861572 -53.762775 -278.907654
v 275.844391 -53.762775 -269.292175
v -270.094360 -61.611015 263.048248
v 270.094360 -61.611015 263.048248
v -270.094360 17.553171 263.048248
v 270.094360 17.553171 263.048248
v -270.094360 17.553171 -277.140411
v 270.094360 17.553171 -277.140411
v -270.094360 -61.611015 -277.140411
v 270.094360 -61.611015 -277.140411
vt 0.501449 0.012440
vt 0.510191 0.012440
vt 0.510191 0.489304
vt 0.501449 0.489304
vt 0.510191 0.003698
vt 0.503055 0.005305
vt 0.567895 0.012440
vt 0.567895 0.489304
vt 0.510191 0.498046
vt 0.503055 0.496440
vt 0.567895 0.003698
vt 0.576638 0.012440
vt 0.576638 0.489304
vt 0.567895 0.498046
vt 0.575031 0.005305
vt 0.575031 0.496440
vt 0.668806 0.489304
vt 0.660064 0.489304
vt 0.660064 0.012440
vt 0.668806 0.012440
vt 0.668806 0.498047
vt 0.661671 0.496440
vt 0.668806 0.003698
vt 0.661671 0.005305
vt 0.726511 0.012440
vt 0.726511 0.489304
vt 0.726511 0.498047
vt 0.726511 0.003698
vt 0.735253 0.489304
vt 0.735253 0.012440
vt 0.733646 0.496440
vt 0.733646 0.005305
vt 0.487232 0.489304
vt 0.487232 0.498046
vt 0.010368 0.498046
vt 0.010368 0.489304
vt 0.495975 0.489304
vt 0.494368 0.496440
vt 0.001626 0.489304
vt 0.003233 0.496440
vt 0.010368 0.012440
vt 0.487232 0.012440
vt 0.495975 0.012440
vt 0.001626 0.012440
vt 0.487232 0.003698
vt 0.010368 0.003698
vt 0.494368 0.005305
vt 0.003233 0.005305
vt 0.010368 0.998008
vt 0.010368 0.989266
vt 0.487232 0.989266
vt 0.487232 0.998008
vt 0.001626 0.989266
vt 0.003233 0.996401
vt 0.010368 0.512402
vt 0.487232 0.512402
vt 0.495975 0.989266
vt 0.494368 0.996401
vt 0.001626 0.512402
vt 0.010368 0.503659
vt 0.487232 0.503659
vt 0.495975 0.512402
vt 0.003233 0.505266
vt 0.494368 0.505266
vt 0.589499 0.489304
vt 0.580756 0.489304
vt 0.580756 0.012440
vt 0.589499 0.012440
vt 0.589499 0.498047
vt 0.582363 0.496440
vt 0.589499 0.003698
vt 0.582363 0.005305
vt 0.647203 0.012440
vt 0.647203 0.489304
vt 0.647203 0.498047
vt 0.647203 0.003698
vt 0.655945 0.489304
vt 0.655945 0.012440
vt 0.654339 0.496440
vt 0.654339 0.005305
vt 0.748114 0.496341
vt 0.748114 0.487598
vt 0.805818 0.487598
vt 0.805818 0.496341
vt 0.739372 0.487598
vt 0.740979 0.494734
vt 0.748114 0.010734
vt 0.805818 0.010734
vt 0.814561 0.487598
vt 0.812954 0.494734
vt 0.739372 0.010734
vt 0.748114 0.001992
vt 0.805818 0.001992
vt 0.814561 0.010734
vt 0.740979 0.003599
vt 0.812954 0.003599
vn -0.007411 -0.999945 0.007411
vn -0.382164 -0.924083 0.004626
vn -0.382164 -0.924083 -0.004626
vn -0.007411 -0.999945 -0.007411
vn -0.924084 -0.382163 0.004626
vn -0.998510 -0.054111 0.007112
vn -0.998510 -0.054111 -0.007112
vn -0.924084 -0.382163 -0.004626
vn -0.007112 -0.054111 0.998510
vn -0.004626 -0.382163 0.924083
vn 0.004626 -0.382163 0.924083
vn 0.007112 -0.054111 0.998510
vn -0.004626 -0.924083 0.382165
vn 0.007411 -0.999945 0.007411
vn 0.004626 -0.924083 0.382165
vn -0.924921 -0.034808 0.378563
vn -0.924921 0.034808 0.378563
vn -0.998510 0.054111 0.007112
vn -0.378563 -0.034808 0.924921
vn -0.007112 0.054111 0.998510
vn -0.378563 0.034808 0.924921
vn 0.998510 -0.054111 0.007112
vn 0.924084 -0.382163 0.004626
vn 0.924084 -0.382163 -0.004626
vn 0.998510 -0.054111 -0.007112
vn 0.382164 -0.924083 0.004626
vn 0.007411 -0.999945 -0.007411
vn 0.382164 -0.924083 -0.004626
vn 0.378564 -0.034808 0.924921
vn 0.378563 0.034808 0.924921
vn 0.007112 0.054111 0.998510
vn 0.924921 -0.034808 0.378563
vn 0.998510 0.054111 0.007112
vn 0.924921 0.034808 0.378563
vn -0.924084 0.382163 0.004626
vn -0.924083 0.382163 -0.004626
vn -0.998510 0.054111 -0.007112
vn -0.382163 0.924083 0.004626
vn -0.007411 0.999945 0.007411
vn -0.007411 0.999945 -0.007411
vn -0.382163 0.924083 -0.004626
vn -0.004626 0.924083 0.382164
vn 0.004626 0.924083 0.382164
vn 0.007411 0.999945 0.007411
vn -0.004626 0.382164 0.924083
vn 0.004626 0.382164 0.924083
vn 0.382163 0.924083 0.004626
vn 0.382163 0.924083 -0.004626
vn 0.007411 0.999945 -0.007411
vn 0.924083 0.382163 0.004626
vn 0.998510 0.054111 -0.007112
vn 0.924083 0.382163 -0.004626
vn -0.924921 0.034808 -0.378562
vn -0.924921 -0.034808 -0.378561
vn -0.378563 0.034808 -0.924921
vn -0.007112 0.054111 -0.998510
vn -0.007112 -0.054111 -0.998510
vn -0.378563 -0.034808 -0.924921
vn -0.004626 0.382161 -0.924084
vn 0.004626 0.382161 -0.924084
vn 0.007112 0.054111 -0.998510
vn -0.004626 0.924084 -0.382162
vn 0.004626 0.924084 -0.382162
vn 0.378563 0.034808 -0.924921
vn 0.378563 -0.034808 -0.924921
vn 0.007112 -0.054111 -0.998510
vn 0.924921 0.034808 -0.378562
vn 0.924921 -0.034808 -0.378561
vn -0.004626 -0.924084 -0.382162
vn 0.004626 -0.924084 -0.382162
vn -0.004626 -0.382161 -0.924084
vn 0.004626 -0.382161 -0.924084
vn -0.887920 -0.325264 0.325270
vn -0.325269 -0.887918 0.325271
vn -0.325272 -0.325270 0.887918
vn 0.325269 -0.887918 0.325271
vn 0.887920 -0.325264 0.325270
vn 0.325273 -0.325269 0.887917
vn -0.325269 0.887918 0.325271
vn -0.887920 0.325264 0.325270
vn -0.325268 0.325270 0.887919
vn 0.887920 0.325264 0.325270
vn 0.325269 0.887918 0.325271
vn 0.325269 0.325270 0.887919
vn -0.325269 0.325269 -0.887919
vn -0.887920 0.325268 -0.325268
vn -0.325270 0.887918 -0.325270
vn 0.887920 0.325268 -0.325268
vn 0.325268 0.325269 -0.887919
vn 0.325270 0.887919 -0.325269
vn -0.325271 -0.887918 -0.325270
vn -0.887921 -0.325266 -0.325267
vn -0.325265 -0.325269 -0.887920
vn 0.887921 -0.325267 -0.325266
vn 0.325271 -0.887918 -0.325270
vn 0.325264 -0.325269 -0.887921
s 1
g pCube21
usemtl blinn2SG
f 2/33/1 1/34/2 37/35/3 42/36/4
s 2
f 1/1/5 6/2/6 38/3/7 37/4/8
s 3
f 4/65/9 3/66/10 11/67/11 10/68/12
s 1
f 3/37/13 2/33/1 12/42/14 11/43/15
s 2
f 6/2/6 5/5/16 15/11/17 14/7/18
s 3
f 5/69/19 4/65/9 16/74/20 15/75/21
s 4
f 8/17/22 7/18/23 43/19/24 48/20/25
s 1
f 7/45/26 12/42/14 44/41/27 43/46/28
s 3
f 10/68/12 9/71/29 23/76/30 22/73/31
s 4
f 9/21/32 8/17/22 24/26/33 23/27/34
s 2
f 14/7/18 13/12/35 27/13/36 26/8/37
s 5
f 13/49/38 18/50/39 28/51/40 27/52/41
f 18/50/39 17/53/42 21/59/43 20/55/44
s 3
f 17/77/45 16/74/20 22/73/31 21/78/46
s 5
f 20/55/44 19/60/47 35/61/48 34/56/49
s 4
f 19/29/50 24/26/33 36/25/51 35/30/52
s 2
f 26/8/37 25/14/53 39/9/54 38/3/7
s 6
f 25/81/55 30/82/56 40/83/57 39/84/58
f 30/82/56 29/85/59 33/91/60 32/87/61
s 5
f 29/57/62 28/51/40 34/56/49 33/62/63
s 6
f 32/87/61 31/92/64 47/93/65 46/88/66
s 4
f 31/28/67 36/25/51 48/20/25 47/23/68
s 1
f 42/36/4 41/39/69 45/44/70 44/41/27
s 6
f 41/89/71 40/83/57 46/88/66 45/94/72
s 3
f 4/65/9 10/68/12 22/73/31 16/74/20
s 5
f 18/50/39 20/55/44 34/56/49 28/51/40
s 6
f 30/82/56 32/87/61 46/88/66 40/83/57
s 1
f 42/36/4 44/41/27 12/42/14 2/33/1
s 4
f 8/17/22 48/20/25 36/25/51 24/26/33
s 2
f 38/3/7 6/2/6 14/7/18 26/8/37
f 5/5/16 6/2/6 1/1/5 49/6/73
s 1
f 1/34/2 2/33/1 3/37/13 49/38/74
s 3
f 3/66/10 4/65/9 5/69/19 49/70/75
s 1
f 11/43/15 12/42/14 7/45/26 50/47/76
s 4
f 7/18/23 8/17/22 9/21/32 50/22/77
s 3
f 9/71/29 10/68/12 11/67/11 50/72/78
s 5
f 17/53/42 18/50/39 13/49/38 51/54/79
s 2
f 13/12/35 14/7/18 15/11/17 51/15/80
s 3
f 15/75/21 16/74/20 17/77/45 51/79/81
s 4
f 23/27/34 24/26/33 19/29/50 52/31/82
s 5
f 19/60/47 20/55/44 21/59/43 52/63/83
s 3
f 21/78/46 22/73/31 23/76/30 52/80/84
s 6
f 29/85/59 30/82/56 25/81/55 53/86/85
s 2
f 25/14/53 26/8/37 27/13/36 53/16/86
s 5
f 27/52/41 28/51/40 29/57/62 53/58/87
s 4
f 35/30/52 36/25/51 31/28/67 54/32/88
s 6
f 31/92/64 32/87/61 33/91/60 54/95/89
s 5
f 33/62/63 34/56/49 35/61/48 54/64/90
s 1
f 41/39/69 42/36/4 37/35/3 55/40/91
s 2
f 37/4/8 38/3/7 39/9/54 55/10/92
s 6
f 39/84/58 40/83/57 41/89/71 55/90/93
s 4
f 47/23/68 48/20/25 43/19/24 56/24/94
s 1
f 43/46/28 44/41/27 45/44/70 56/48/95
s 6
f 45/94/72 46/88/66 47/93/65 56/96/96
